<?xml version="1.0" encoding="UTF-8"?>
<svg xmlns="http://www.w3.org/2000/svg" xmlns:xlink="http://www.w3.org/1999/xlink" width="2550pt" height="3300pt" viewBox="0 0 2550 3300" version="1.1">
<g id="surface1">
<rect x="0" y="0" width="2550" height="3300" style="fill:rgb(78.431373%,78.431373%,78.431373%);fill-opacity:1;stroke:none;"/>
<rect x="0" y="0" width="2550" height="3300" style="fill:rgb(78.431373%,78.431373%,78.431373%);fill-opacity:1;stroke:none;"/>
<path style=" stroke:none;fill-rule:evenodd;fill:rgb(100%,100%,100%);fill-opacity:1;" d="M 1304.09375 1622 L 1303.78125 1623.976562 L 1303.46875 1625.949219 L 1302.84375 1629.902344 L 1302.535156 1631.878906 L 1302.222656 1633.851562 L 1301.285156 1639.78125 L 1300.972656 1641.753906 L 1300.347656 1645.707031 L 1300.039062 1647.679688 L 1299.589844 1649.5 L 1281.589844 1649.5 L 1281.398438 1647.972656 L 1282.070312 1644.027344 L 1282.40625 1642.058594 L 1282.738281 1640.085938 L 1283.746094 1634.167969 L 1284.078125 1632.199219 L 1284.75 1628.253906 L 1285.082031 1626.28125 L 1285.417969 1624.3125 L 1286.089844 1620.367188 L 1286.421875 1618.394531 L 1286.757812 1616.425781 L 1287.09375 1614.453125 L 1287.425781 1612.480469 L 1288.097656 1608.535156 L 1288.433594 1606.566406 L 1288.765625 1604.59375 L 1289.4375 1600.648438 L 1289.773438 1598.679688 L 1290.105469 1596.707031 L 1290.777344 1592.761719 L 1291.109375 1590.789062 L 1291.445312 1588.820312 L 1292.117188 1584.875 L 1292.449219 1582.902344 L 1292.785156 1580.933594 L 1293.457031 1576.988281 L 1293.789062 1575.015625 L 1294.125 1573.046875 L 1294.460938 1571.074219 L 1294.792969 1569.101562 L 1295.464844 1565.15625 L 1295.800781 1563.1875 L 1296.132812 1561.214844 L 1296.804688 1557.269531 L 1297.140625 1555.300781 L 1297.472656 1553.328125 L 1298.144531 1549.382812 L 1298.476562 1547.410156 L 1298.8125 1545.441406 L 1299.484375 1541.496094 L 1299.816406 1539.523438 L 1300.152344 1537.554688 L 1300.824219 1533.609375 L 1301.15625 1531.636719 L 1302.617188 1531 L 1324.617188 1531 L 1325.945312 1531.796875 L 1326.277344 1533.765625 L 1326.605469 1535.738281 L 1326.9375 1537.710938 L 1327.265625 1539.683594 L 1327.597656 1541.65625 L 1327.925781 1543.628906 L 1328.589844 1547.574219 L 1328.917969 1549.546875 L 1329.25 1551.519531 L 1329.578125 1553.492188 L 1329.910156 1555.464844 L 1330.238281 1557.4375 L 1330.570312 1559.410156 L 1330.898438 1561.382812 L 1331.5625 1565.328125 L 1331.890625 1567.300781 L 1332.222656 1569.273438 L 1332.550781 1571.246094 L 1332.882812 1573.21875 L 1333.210938 1575.191406 L 1333.875 1579.136719 L 1334.203125 1581.109375 L 1334.535156 1583.082031 L 1334.863281 1585.054688 L 1335.195312 1587.027344 L 1335.523438 1589 L 1335.855469 1590.972656 L 1336.183594 1592.945312 L 1336.515625 1594.917969 L 1336.847656 1596.886719 L 1337.175781 1598.859375 L 1337.507812 1600.832031 L 1337.835938 1602.804688 L 1338.167969 1604.777344 L 1338.496094 1606.75 L 1339.160156 1610.695312 L 1339.488281 1612.667969 L 1339.820312 1614.640625 L 1340.148438 1616.613281 L 1340.480469 1618.585938 L 1340.808594 1620.558594 L 1341.140625 1622.53125 L 1341.46875 1624.503906 L 1342.132812 1628.449219 L 1342.460938 1630.421875 L 1342.792969 1632.394531 L 1343.121094 1634.367188 L 1343.453125 1636.339844 L 1343.78125 1638.3125 L 1344.113281 1640.285156 L 1344.441406 1642.257812 L 1345.105469 1646.203125 L 1345.433594 1648.175781 L 1345 1649.5 L 1327 1649.5 L 1326.65625 1647.570312 L 1326.347656 1645.59375 L 1325.128906 1637.6875 L 1324.820312 1635.710938 L 1323.601562 1627.804688 L 1323.292969 1625.828125 L 1322.988281 1623.851562 L 1322.578125 1622 Z "/>
</g>
</svg>
